<svg xmlns="http://www.w3.org/2000/svg" viewBox="0 0 760 600" font-family="system-ui, -apple-system, 'Segoe UI', 'Hiragino Sans', 'Noto Sans JP', sans-serif" font-size="14" fill="currentColor">
  <defs>
    <marker id="arrow" viewBox="0 0 10 10" refX="9" refY="5" markerWidth="8" markerHeight="8" orient="auto-start-reverse">
      <path d="M 0 0 L 10 5 L 0 10 z" fill="currentColor"/>
    </marker>
  </defs>
  <g stroke="currentColor" stroke-width="1.5" fill="none">
    <!-- 質問（左列） -->
    <rect x="20" y="20" width="300" height="64" rx="8"/>
    <rect x="20" y="150" width="300" height="64" rx="8"/>
    <rect x="20" y="280" width="300" height="64" rx="8"/>
    <rect x="20" y="410" width="300" height="64" rx="8"/>
    <!-- 答え（右列） -->
    <rect x="420" y="20" width="320" height="64" rx="8" opacity="0.9"/>
    <rect x="420" y="150" width="320" height="64" rx="8" opacity="0.9"/>
    <rect x="420" y="280" width="320" height="64" rx="8" opacity="0.9"/>
    <rect x="420" y="410" width="320" height="64" rx="8" opacity="0.9"/>
    <rect x="20" y="530" width="720" height="50" rx="8" opacity="0.9"/>
    <!-- 矢印: はい（右へ） -->
    <line x1="320" y1="52" x2="418" y2="52" marker-end="url(#arrow)"/>
    <line x1="320" y1="182" x2="418" y2="182" marker-end="url(#arrow)"/>
    <line x1="320" y1="312" x2="418" y2="312" marker-end="url(#arrow)"/>
    <line x1="320" y1="442" x2="418" y2="442" marker-end="url(#arrow)"/>
    <!-- 矢印: いいえ（下へ） -->
    <line x1="170" y1="84" x2="170" y2="148" marker-end="url(#arrow)"/>
    <line x1="170" y1="214" x2="170" y2="278" marker-end="url(#arrow)"/>
    <line x1="170" y1="344" x2="170" y2="408" marker-end="url(#arrow)"/>
    <line x1="170" y1="474" x2="170" y2="528" marker-end="url(#arrow)"/>
  </g>
  <!-- 矢印のラベル -->
  <g font-size="12" opacity="0.75">
    <text x="360" y="46" text-anchor="middle">はい</text>
    <text x="360" y="176" text-anchor="middle">はい</text>
    <text x="360" y="306" text-anchor="middle">はい</text>
    <text x="360" y="436" text-anchor="middle">はい</text>
    <text x="182" y="120">いいえ</text>
    <text x="182" y="250">いいえ</text>
    <text x="182" y="380">いいえ</text>
    <text x="182" y="506">いいえ</text>
  </g>
  <!-- 質問の文言 -->
  <g text-anchor="middle">
    <text x="170" y="46">DNS・cron・DB・SSH 鍵まで、</text>
    <text x="170" y="68">API や CLI から設定したい</text>
    <text x="170" y="176">API はドメイン・SSL・WordPress・</text>
    <text x="170" y="198">メールまでで足り、月額を抑えたい</text>
    <text x="170" y="306">API は要らず、カード登録なしで</text>
    <text x="170" y="328">2 週間試したい</text>
    <text x="170" y="436">お試しは不要で、契約後 30 日以内の</text>
    <text x="170" y="458">返金で足りる。cPanel に慣れている</text>
  </g>
  <!-- 答えの文言 -->
  <g text-anchor="middle">
    <text x="580" y="46" font-weight="600">エックスサーバー スタンダード</text>
    <text x="580" y="68" font-size="12">API・CLI・MCP が揃い、お試し中も API キーを発行できる</text>
    <text x="580" y="176" font-weight="600">ロリポップ! スタンダード</text>
    <text x="580" y="198" font-size="12">公開 API とリモート MCP。DB・cron・FTP は近日公開</text>
    <text x="580" y="306" font-weight="600">さくらのレンタルサーバ スタンダード</text>
    <text x="580" y="328" font-size="12">14 日間お試し。公開 API は無く、SSH は初期ドメインのみ</text>
    <text x="580" y="436" font-weight="600">mixhost スタンダード</text>
    <text x="580" y="458" font-size="12">30 日間返金保証。公開 API は無く、cPanel と SSH で操作</text>
    <text x="380" y="551" font-weight="600">AI にはファイルを上げてもらうだけでよいなら ConoHa WING ベーシック（FTPS のスキルを公式配布）</text>
    <text x="380" y="571" font-size="12">無料お試しは無く、WINGパックは 3 か月以上の前払い。通常料金なら時間課金で最低利用期間なし</text>
  </g>
</svg>
